<svg width="17" height="17" viewBox="0 0 17 17" fill="none" xmlns="http://www.w3.org/2000/svg">
<path d="M8.5 10.1026C9.1329 10.1026 9.75159 9.91499 10.2778 9.56352C10.8041 9.21204 11.2142 8.71247 11.4564 8.12798C11.6986 7.5435 11.762 6.90034 11.6385 6.27986C11.515 5.65937 11.2103 5.08942 10.7627 4.64207C10.3152 4.19472 9.74503 3.89008 9.12429 3.76665C8.50355 3.64323 7.86013 3.70658 7.27541 3.94868C6.69069 4.19078 6.19092 4.60077 5.8393 5.12679C5.48768 5.65281 5.3 6.27125 5.3 6.90389C5.3 7.75224 5.63714 8.56584 6.23726 9.16572C6.83737 9.76559 7.65131 10.1026 8.5 10.1026ZM8.5 5.30454C8.81645 5.30454 9.12579 5.39834 9.38891 5.57408C9.65203 5.74982 9.85711 5.99961 9.97821 6.29185C10.0993 6.58409 10.131 6.90567 10.0693 7.21591C10.0075 7.52615 9.85513 7.81113 9.63137 8.03481C9.4076 8.25848 9.12251 8.4108 8.81214 8.47251C8.50177 8.53422 8.18007 8.50255 7.8877 8.3815C7.59534 8.26045 7.34546 8.05546 7.16965 7.79245C6.99384 7.52943 6.9 7.22022 6.9 6.90389C6.9 6.47972 7.06857 6.07292 7.36863 5.77298C7.66869 5.47305 8.07565 5.30454 8.5 5.30454Z" fill="#898587"/>
<path d="M16.5 8.50324C16.5011 7.12005 16.1433 5.76022 15.4615 4.55659C14.7797 3.35295 13.7972 2.34668 12.6101 1.63605C11.4229 0.925429 10.0716 0.534762 8.68825 0.502215C7.30488 0.469667 5.93672 0.796352 4.71742 1.45036C3.49811 2.10436 2.46937 3.06332 1.73166 4.23356C0.993965 5.40379 0.57254 6.74529 0.508558 8.127C0.444576 9.50871 0.740224 10.8834 1.36662 12.1167C1.99302 13.3501 2.92875 14.3999 4.0824 15.1637C4.0888 15.1685 4.0928 15.1741 4.0992 15.1789C4.1296 15.1989 4.1632 15.2125 4.1944 15.2325C4.45242 15.397 4.71951 15.5467 4.9944 15.6811C5.0672 15.7163 5.1392 15.7531 5.2136 15.7859C5.52505 15.9295 5.84576 16.0521 6.1736 16.1529C6.2128 16.1657 6.2536 16.1729 6.2944 16.1841C6.5892 16.2679 6.88864 16.3344 7.1912 16.3832C7.2792 16.3984 7.3664 16.4128 7.4544 16.424C7.8009 16.4721 8.15018 16.4975 8.5 16.5C8.84795 16.4973 9.19535 16.4719 9.54 16.424C9.628 16.4128 9.7152 16.3984 9.8032 16.3832C10.1058 16.3344 10.4052 16.2679 10.7 16.1841C10.74 16.1729 10.78 16.1657 10.8208 16.1529C11.1486 16.0521 11.4693 15.9295 11.7808 15.7859C11.8552 15.7531 11.9272 15.7163 12 15.6811C12.2749 15.5467 12.542 15.397 12.8 15.2325C12.8312 15.2125 12.8648 15.1989 12.8952 15.1789C12.9016 15.1741 12.9056 15.1685 12.912 15.1637C14.0135 14.4358 14.9177 13.4466 15.5437 12.2844C16.1698 11.1222 16.4983 9.82321 16.5 8.50324ZM2.1 8.50324C2.09793 7.44177 2.36012 6.39646 2.86295 5.46152C3.36578 4.52659 4.09343 3.73141 4.98034 3.14766C5.86725 2.5639 6.88553 2.20992 7.94341 2.11761C9.0013 2.0253 10.0655 2.19756 11.0402 2.61888C12.0149 3.04019 12.8694 3.69731 13.5267 4.53101C14.184 5.36472 14.6234 6.3488 14.8053 7.39458C14.9873 8.44036 14.9061 9.51496 14.569 10.5215C14.2319 11.5281 13.6495 12.435 12.8744 13.1606C12.551 12.4865 12.0441 11.9172 11.412 11.5178C10.7798 11.1184 10.0479 10.9051 9.3 10.9023H7.7C6.95214 10.9051 6.2202 11.1184 5.58803 11.5178C4.95586 11.9172 4.44902 12.4865 4.1256 13.1606C3.48682 12.5644 2.97741 11.8433 2.62896 11.0422C2.28052 10.241 2.10047 9.37683 2.1 8.50324ZM10.776 14.4752C9.30771 15.0206 7.69229 15.0206 6.224 14.4752C6.196 14.464 6.1664 14.4552 6.1384 14.444C5.9009 14.3516 5.66926 14.2448 5.4448 14.1242C5.60469 13.6525 5.90799 13.2426 6.31233 12.9517C6.71666 12.6608 7.20182 12.5034 7.7 12.5016H9.3C9.79798 12.5033 10.283 12.6605 10.6873 12.9511C11.0916 13.2417 11.395 13.6512 11.5552 14.1226C11.3307 14.2432 11.0991 14.35 10.8616 14.4424C10.8336 14.4552 10.804 14.464 10.776 14.4752Z" fill="#898587"/>
</svg>
