<svg width="17" height="17" viewBox="0 0 17 17" fill="none" xmlns="http://www.w3.org/2000/svg">
<path d="M15.5587 15.8334H1.44117C1.19156 15.8334 0.952166 15.7303 0.775662 15.547C0.599159 15.3636 0.5 15.1149 0.5 14.8556V2.14446C0.5 1.88514 0.599159 1.63644 0.775662 1.45307C0.952166 1.2697 1.19156 1.16669 1.44117 1.16669C1.69078 1.16669 1.93017 1.2697 2.10668 1.45307C2.28318 1.63644 2.38234 1.88514 2.38234 2.14446V13.8778H15.5587C15.8083 13.8778 16.0477 13.9808 16.2242 14.1642C16.4007 14.3476 16.4999 14.5963 16.4999 14.8556C16.4999 15.1149 16.4007 15.3636 16.2242 15.547C16.0477 15.7303 15.8083 15.8334 15.5587 15.8334Z" fill="url(#paint0_linear_1_1688)"/>
<path d="M4.26468 12.9C4.08989 12.9 3.91856 12.8495 3.76988 12.754C3.62119 12.6585 3.50104 12.5219 3.42287 12.3595C3.3447 12.1971 3.31161 12.0153 3.32731 11.8344C3.34301 11.6536 3.40687 11.4808 3.51174 11.3356L6.33525 7.42446C6.47961 7.22445 6.69224 7.08947 6.92942 7.04728C7.16661 7.00509 7.41035 7.05889 7.61054 7.19762L9.6124 8.58411L11.9286 4.57522C11.9942 4.46183 12.0812 4.36344 12.1845 4.28601C12.2877 4.20857 12.405 4.15371 12.5292 4.12473C12.6535 4.09575 12.7821 4.09327 12.9073 4.11742C13.0324 4.14158 13.1516 4.19187 13.2576 4.26526L16.0811 6.22082C16.1839 6.29208 16.2722 6.38369 16.341 6.49042C16.4097 6.59714 16.4576 6.71688 16.4818 6.84282C16.506 6.96875 16.5061 7.0984 16.4821 7.22437C16.458 7.35034 16.4104 7.47017 16.3418 7.577C16.2732 7.68383 16.185 7.77558 16.0823 7.84701C15.9795 7.91844 15.8643 7.96814 15.7431 7.99329C15.6218 8.01845 15.497 8.01854 15.3758 7.99359C15.2545 7.96863 15.1392 7.91911 15.0364 7.84784L13.0345 6.46135L10.7183 10.4702C10.6527 10.5836 10.5657 10.682 10.4624 10.7595C10.3592 10.8369 10.2419 10.8918 10.1177 10.9207C9.99344 10.9497 9.86483 10.9522 9.73964 10.928C9.61445 10.9039 9.49528 10.8536 9.38935 10.7802L7.30654 9.337L5.01761 12.5089C4.92995 12.6303 4.81627 12.7289 4.68558 12.7968C4.5549 12.8647 4.41079 12.9 4.26468 12.9Z" fill="url(#paint1_linear_1_1688)"/>
<defs>
<linearGradient id="paint0_linear_1_1688" x1="8.49822" y1="15.8334" x2="8.49822" y2="1.16669" gradientUnits="userSpaceOnUse">
<stop stop-color="#9061F9"/>
<stop offset="1" stop-color="#7EDCE2"/>
</linearGradient>
<linearGradient id="paint1_linear_1_1688" x1="8.49822" y1="15.8334" x2="8.49822" y2="1.16669" gradientUnits="userSpaceOnUse">
<stop stop-color="#9061F9"/>
<stop offset="1" stop-color="#7EDCE2"/>
</linearGradient>
</defs>
</svg>
