<svg width="15" height="17" viewBox="0 0 15 17" fill="none" xmlns="http://www.w3.org/2000/svg">
<path d="M12.5548 0.500006H5.69005C5.36166 0.499285 5.03637 0.56106 4.733 0.681759C4.42963 0.802459 4.15419 0.97969 3.9226 1.20321L1.566 3.46561C1.33303 3.68783 1.14832 3.95224 1.02259 4.24351C0.89685 4.53478 0.832588 4.84711 0.833523 5.1624V14.9C0.826833 15.3172 0.99273 15.7199 1.29484 16.0198C1.59695 16.3197 2.01062 16.4924 2.44514 16.5H12.5548C12.9894 16.4924 13.403 16.3197 13.7051 16.0198C14.0073 15.7199 14.1732 15.3172 14.1665 14.9V2.10001C14.1732 1.68283 14.0073 1.28013 13.7051 0.980196C13.403 0.680265 12.9894 0.507581 12.5548 0.500006ZM5.00007 2.43121V4.5H2.84513L5.00007 2.43121ZM2.50014 14.9V6.1H5.00007C5.44208 6.1 5.86599 5.93143 6.17854 5.63137C6.4911 5.33132 6.66669 4.92435 6.66669 4.5V2.10001L12.4998 2.08241C12.5011 2.08821 12.5011 2.0942 12.4998 2.10001L12.5548 14.9H2.50014Z" fill="#898587"/>
<path d="M5.00007 10.9C4.77906 10.9 4.5671 10.9843 4.41083 11.1343C4.25455 11.2843 4.16676 11.4878 4.16676 11.7V13.3C4.16676 13.5122 4.25455 13.7157 4.41083 13.8657C4.5671 14.0157 4.77906 14.1 5.00007 14.1C5.22107 14.1 5.43303 14.0157 5.58931 13.8657C5.74558 13.7157 5.83338 13.5122 5.83338 13.3V11.7C5.83338 11.4878 5.74558 11.2843 5.58931 11.1343C5.43303 10.9843 5.22107 10.9 5.00007 10.9Z" fill="#898587"/>
<path d="M7.49999 7.7C7.27899 7.7 7.06703 7.78429 6.91076 7.93432C6.75448 8.08435 6.66669 8.28783 6.66669 8.5V13.3C6.66669 13.5122 6.75448 13.7157 6.91076 13.8657C7.06703 14.0157 7.27899 14.1 7.49999 14.1C7.721 14.1 7.93296 14.0157 8.08923 13.8657C8.24551 13.7157 8.3333 13.5122 8.3333 13.3V8.5C8.3333 8.28783 8.24551 8.08435 8.08923 7.93432C7.93296 7.78429 7.721 7.7 7.49999 7.7Z" fill="#898587"/>
<path d="M9.99992 9.3C9.77891 9.3 9.56696 9.38429 9.41068 9.53432C9.25441 9.68435 9.16661 9.88783 9.16661 10.1V13.3C9.16661 13.5122 9.25441 13.7157 9.41068 13.8657C9.56696 14.0157 9.77891 14.1 9.99992 14.1C10.2209 14.1 10.4329 14.0157 10.5892 13.8657C10.7454 13.7157 10.8332 13.5122 10.8332 13.3V10.1C10.8332 9.88783 10.7454 9.68435 10.5892 9.53432C10.4329 9.38429 10.2209 9.3 9.99992 9.3Z" fill="#898587"/>
</svg>
