<svg width="14" height="18" viewBox="0 0 14 18" fill="none" xmlns="http://www.w3.org/2000/svg">
<path d="M10.4998 3.00018C10.4998 2.33714 10.2364 1.70126 9.76755 1.23242C9.29871 0.763578 8.66283 0.500187 7.99979 0.500187C7.33675 0.500187 6.70086 0.763578 6.23202 1.23242C5.76318 1.70126 5.49979 2.33714 5.49979 3.00018V14.0002C5.49979 14.6632 5.2364 15.2991 4.76756 15.7679C4.29872 16.2368 3.66284 16.5002 2.9998 16.5002C2.33676 16.5002 1.70087 16.2368 1.23203 15.7679C0.763193 15.2991 0.499802 14.6632 0.499802 14.0002M12.9998 12.0002L7.99979 17.0002L12.9998 12.0002ZM7.99979 12.0002L12.9998 17.0002L7.99979 12.0002ZM1.9998 6.50018H8.99979H1.9998Z" stroke="white"/>
</svg>
