<svg width="28" height="28" viewBox="0 0 28 28" fill="none" xmlns="http://www.w3.org/2000/svg">
<path d="M16.9999 11V17H19.9999V11H16.9999ZM16.4999 10H20.4999C20.6325 10 20.7597 10.0527 20.8535 10.1464C20.9472 10.2402 20.9999 10.3674 20.9999 10.5V17.5C20.9999 17.6326 20.9472 17.7598 20.8535 17.8535C20.7597 17.9473 20.6325 18 20.4999 18H16.4999C16.3673 18 16.2401 17.9473 16.1464 17.8535C16.0526 17.7598 15.9999 17.6326 15.9999 17.5V10.5C15.9999 10.3674 16.0526 10.2402 16.1464 10.1464C16.2401 10.0527 16.3673 10 16.4999 10Z" fill="#C4C4C4"/>
<path d="M18 6.99999H19V10.5H18V6.99999ZM18 17.5H19V21H18V17.5Z" fill="#C4C4C4"/>
<path d="M8.99995 7.99999V20H11.9999V7.99999H8.99995ZM8.49995 6.99999H12.4999C12.6326 6.99999 12.7597 7.05267 12.8535 7.14644C12.9473 7.24021 12.9999 7.36738 12.9999 7.49999V20.5C12.9999 20.6326 12.9473 20.7598 12.8535 20.8535C12.7597 20.9473 12.6326 21 12.4999 21H8.49995C8.36735 21 8.24017 20.9473 8.1464 20.8535C8.05263 20.7598 7.99995 20.6326 7.99995 20.5V7.49999C7.99995 7.36738 8.05263 7.24021 8.1464 7.14644C8.24017 7.05267 8.36735 6.99999 8.49995 6.99999Z" fill="#C4C4C4"/>
<path d="M9.99992 4H10.9999V7.49999H9.99992V4ZM9.99992 20.5H10.9999V24H9.99992V20.5Z" fill="#C4C4C4"/>
</svg>
