<svg width="13" height="13" viewBox="0 0 13 13" fill="none" xmlns="http://www.w3.org/2000/svg">
<path d="M2.60005 6.50007C2.60005 5.42299 3.0361 4.44859 3.74234 3.74235L3.12952 3.12952C2.26739 3.99165 1.73338 5.18391 1.73338 6.50007H2.60005ZM3.74234 3.74235C4.44858 3.03612 5.42298 2.60008 6.50004 2.60008V1.73341C5.1839 1.73341 3.99164 2.26741 3.12952 3.12952L3.74234 3.74235ZM3.74235 3.12952L2.2103 1.59747L1.59747 2.21029L3.12952 3.74235L3.74235 3.12952ZM6.50004 2.60008C7.57713 2.60008 8.55154 3.03612 9.25774 3.74237L9.87056 3.12954C9.00849 2.26741 7.81621 1.73341 6.50004 1.73341V2.60008ZM9.25774 3.74237C9.96399 4.4486 10.4 5.423 10.4 6.50007H11.2667C11.2667 5.18392 10.7327 3.99166 9.87056 3.12954L9.25774 3.74237ZM9.87056 3.74237L11.4027 2.21029L10.7898 1.59746L9.25774 3.12954L9.87056 3.74237ZM10.4 6.50007C10.4 7.57714 9.96399 8.55154 9.25774 9.25774L9.87056 9.87064C10.7327 9.00848 11.2667 7.81623 11.2667 6.50007H10.4ZM9.25774 9.25774C8.55154 9.96398 7.57713 10.4001 6.50004 10.4001V11.2668C7.81621 11.2668 9.00849 10.7327 9.87056 9.87064L9.25774 9.25774ZM9.25774 9.87064L10.7898 11.4026L11.4027 10.7898L9.87056 9.25774L9.25774 9.87064ZM6.50004 10.4001C5.42298 10.4001 4.44858 9.96407 3.74234 9.25782L3.12952 9.87064C3.99164 10.7327 5.1839 11.2668 6.50004 11.2668V10.4001ZM3.74234 9.25782C3.0361 8.55156 2.60005 7.57715 2.60005 6.50007H1.73338C1.73338 7.81624 2.26739 9.00848 3.12952 9.87064L3.74234 9.25782ZM2.2103 11.4026L3.74235 9.87064L3.12952 9.25782L1.59747 10.7898L2.2103 11.4026ZM6.93338 2.16673L6.93334 0L6.06668 1.52074e-05L6.06671 2.16675L6.93338 2.16673ZM10.8334 6.93341L13 6.93334V6.06667L10.8333 6.06674L10.8334 6.93341ZM2.16673 6.06674L2.71093e-05 6.06667L0 6.93334L2.16671 6.93341L2.16673 6.06674ZM6.06671 10.8334L6.06668 13H6.93334L6.93338 10.8334H6.06671Z" fill="#EEEEEE"/>
</svg>
