<svg width="16" height="15" viewBox="0 0 16 15" fill="none" xmlns="http://www.w3.org/2000/svg">
<path d="M9.45184 7.49999L14.8865 2.0653C14.9846 1.97058 15.0628 1.85728 15.1166 1.73201C15.1704 1.60674 15.1988 1.47201 15.1999 1.33568C15.2011 1.19935 15.1752 1.06414 15.1235 0.937954C15.0719 0.811768 14.9957 0.697127 14.8993 0.600721C14.8028 0.504315 14.6882 0.428074 14.562 0.376447C14.4358 0.324821 14.3006 0.298842 14.1643 0.300027C14.028 0.301211 13.8932 0.329536 13.768 0.383348C13.6427 0.43716 13.5294 0.515382 13.4347 0.613448L7.99999 6.04814L2.5653 0.613448C2.37165 0.426414 2.11228 0.322921 1.84307 0.325261C1.57385 0.3276 1.31633 0.435585 1.12596 0.625956C0.935585 0.816327 0.8276 1.07385 0.825261 1.34307C0.822921 1.61228 0.926414 1.87165 1.11345 2.0653L6.54814 7.49999L1.11345 12.9347C1.01538 13.0294 0.93716 13.1427 0.883348 13.268C0.829536 13.3932 0.801211 13.528 0.800027 13.6643C0.798842 13.8006 0.824821 13.9358 0.876447 14.062C0.928074 14.1882 1.00432 14.3028 1.10072 14.3993C1.19713 14.4957 1.31177 14.5719 1.43795 14.6235C1.56414 14.6752 1.69935 14.7011 1.83568 14.6999C1.97201 14.6988 2.10674 14.6704 2.23201 14.6166C2.35728 14.5628 2.47058 14.4846 2.5653 14.3865L7.99999 8.95184L13.4347 14.3865C13.6283 14.5736 13.8877 14.6771 14.1569 14.6747C14.4261 14.6724 14.6836 14.5644 14.874 14.374C15.0644 14.1836 15.1724 13.9261 15.1747 13.6569C15.1771 13.3877 15.0736 13.1283 14.8865 12.9347L9.45184 7.49999Z" fill="#898587"/>
</svg>
